<svg xmlns="http://www.w3.org/2000/svg" version="1.1" xmlns:xlink="http://www.w3.org/1999/xlink" xmlns:svgjs="http://svgjs.dev/svgjs" width="1500" height="556" viewBox="0 0 1500 556"><g transform="matrix(1,0,0,1,-0.9090909090909918,0.3445714470329335)"><svg viewBox="0 0 396 147" data-background-color="#680031" preserveAspectRatio="xMidYMid meet" height="556" width="1500" xmlns="http://www.w3.org/2000/svg" xmlns:xlink="http://www.w3.org/1999/xlink"><g id="tight-bounds" transform="matrix(1,0,0,1,0.2400000000000091,-0.09110072430546268)"><svg viewBox="0 0 395.52 147.18220144861093" height="147.18220144861093" width="395.52"><g><svg viewBox="0 0 662.7510733410562 246.6251061558618" height="147.18220144861093" width="395.52"><g transform="matrix(1,0,0,1,267.23107334105623,75.02362633176395)"><svg viewBox="0 0 395.52 96.5778534923339" height="96.5778534923339" width="395.52"><g id="textblocktransform"><svg viewBox="0 0 395.52 96.5778534923339" height="96.5778534923339" width="395.52" id="textblock"><g><svg viewBox="0 0 395.52 96.5778534923339" height="96.5778534923339" width="395.52"><g transform="matrix(1,0,0,1,0,0)"><svg width="395.52" viewBox="1.71 -39.06 214.95 52.49" height="96.5778534923339" data-palette-color="#fe5e02"><path d="M1.71 0L1.71 0Q2.05-0.63 2.19-1.68 2.32-2.73 2.32-3.91L2.32-3.91Q2.32-4.27 2.27-4.86 2.22-5.44 2.14-6.04 2.05-6.64 1.94-7.14 1.83-7.64 1.71-7.81L1.71-7.81Q2.25-7.81 3.26-8.22 4.27-8.62 5.52-9.46 6.76-10.3 8.13-11.58 9.5-12.87 10.74-14.6L10.74-14.6Q11.04-14.99 11.34-15.38 11.65-15.77 11.9-16.11 12.16-16.46 12.32-16.76 12.48-17.07 12.48-17.29L12.48-17.29Q12.48-17.77 12.11-17.9L12.11-17.9Q12.99-18.07 13.98-18.62 14.97-19.17 15.95-20 16.94-20.83 17.9-21.86 18.85-22.9 19.68-24.05 20.51-25.2 21.18-26.39 21.85-27.59 22.27-28.74L22.27-28.74Q21.44-28.91 20.54-29.05 19.65-29.2 18.84-29.31 18.02-29.42 17.31-29.48 16.6-29.54 16.14-29.54L16.14-29.54Q13.18-29.54 11.6-28.37 10.01-27.2 10.01-24.58L10.01-24.58Q10.01-23.97 10.06-23.55 10.11-23.12 10.18-22.78 10.25-22.44 10.35-22.12 10.45-21.8 10.55-21.39L10.55-21.39Q10.06-21.61 9.27-21.75 8.47-21.9 7.37-21.9L7.37-21.9Q6.32-21.9 5.05-21.78 3.78-21.66 2.17-21.39L2.17-21.39Q2.39-21.78 2.55-22.45 2.71-23.12 2.82-23.99 2.93-24.85 2.98-25.87 3.03-26.88 3.03-27.93L3.03-27.93Q3.03-28.98 2.98-30.05 2.93-31.13 2.82-32.09 2.71-33.06 2.55-33.85 2.39-34.64 2.17-35.16L2.17-35.16Q4.3-34.86 6.07-34.68 7.84-34.5 9.35-34.4 10.86-34.3 12.16-34.27 13.45-34.23 14.62-34.23L14.62-34.23Q15.7-34.23 16.69-34.24 17.68-34.25 18.68-34.25L18.68-34.25Q19.75-34.25 21.26-34.29 22.78-34.33 24.45-34.39 26.12-34.45 27.81-34.52 29.49-34.59 30.93-34.7 32.37-34.81 33.42-34.92 34.47-35.03 34.86-35.16L34.86-35.16Q34.52-34.47 34.39-33.36 34.25-32.25 34.25-31.01L34.25-31.01Q34.25-30.42 34.3-29.8 34.35-29.17 34.44-28.61 34.52-28.05 34.63-27.59 34.74-27.12 34.86-26.86L34.86-26.86Q34.57-26.78 33.94-26.42 33.3-26.05 32.51-25.45 31.71-24.85 30.86-24.07 30-23.29 29.3-22.42 28.59-21.56 28.14-20.64 27.69-19.73 27.69-18.87L27.69-18.87Q27.69-18.09 28.1-17.94L28.1-17.94Q27.39-17.8 26.53-17.49 25.66-17.19 24.72-16.64 23.78-16.09 22.8-15.25 21.83-14.4 20.92-13.18L20.92-13.18Q19.53-11.65 18.46-9.92 17.38-8.2 16.28-6.15L16.28-6.15Q16.87-5.96 17.6-5.81 18.33-5.66 19.13-5.57 19.92-5.47 20.76-5.42 21.61-5.37 22.41-5.37L22.41-5.37Q23.24-5.37 24.16-5.68 25.07-5.98 25.84-6.6 26.61-7.23 27.11-8.14 27.61-9.06 27.61-10.3L27.61-10.3Q27.61-11.23 27.56-12 27.51-12.77 27.32-13.5L27.32-13.5Q27.95-13.28 28.98-13.13 30-12.99 31.47-12.99L31.47-12.99Q32.3-12.99 33.34-13.11 34.38-13.23 35.69-13.5L35.69-13.5Q35.47-13.11 35.31-12.43 35.16-11.74 35.05-10.89 34.94-10.03 34.89-9.02 34.84-8.01 34.84-6.96L34.84-6.96Q34.84-5.91 34.89-4.88 34.94-3.86 35.05-2.94 35.16-2.03 35.31-1.27 35.47-0.51 35.69 0L35.69 0Q34.91-0.15 33.65-0.26 32.4-0.37 30.86-0.44 29.32-0.51 27.6-0.56 25.88-0.61 24.18-0.63 22.49-0.66 20.92-0.67 19.36-0.68 18.14-0.68L18.14-0.68Q15.82-0.68 13.56-0.67 11.3-0.66 9.19-0.59 7.08-0.51 5.18-0.38 3.27-0.24 1.71 0ZM49.39 0L49.39 0Q49.41-0.17 49.42-0.4 49.44-0.63 49.44-0.83L49.44-0.83Q49.44-1.88 49.14-3.34 48.85-4.81 48.04-6.52L48.04-6.52Q47.21-8.28 46.3-9.3 45.38-10.33 44.5-10.6L44.5-10.6Q44.92-10.74 44.92-11.38L44.92-11.38Q44.92-11.69 44.88-12.24 44.85-12.79 44.66-13.51 44.48-14.23 44.09-15.09 43.7-15.94 42.99-16.87L42.99-16.87Q42.58-17.41 41.93-17.92 41.28-18.43 40.55-18.85 39.82-19.26 39.06-19.52 38.3-19.78 37.67-19.78L37.67-19.78Q37.79-20.48 37.88-21.33 37.96-22.17 37.96-23.19L37.96-23.19Q37.96-24.95 37.67-26.12L37.67-26.12Q38.38-25.85 40.1-25.68 41.82-25.51 44.77-25.51L44.77-25.51Q46.29-25.51 47.97-25.52 49.66-25.54 51.18-25.6 52.71-25.66 53.92-25.78 55.12-25.9 55.71-26.12L55.71-26.12Q55.56-25.51 55.49-24.8 55.42-24.1 55.42-23.19L55.42-23.19Q55.42-21.14 55.66-19.78L55.66-19.78Q53.9-19.78 53.11-19.38 52.32-18.99 52.32-18.14L52.32-18.14Q52.32-17.48 52.74-16.37 53.17-15.26 53.81-13.85 54.44-12.45 55.16-10.82 55.88-9.18 56.47-7.45L56.47-7.45Q57.08-9.01 57.81-10.55 58.54-12.08 59.18-13.5 59.81-14.92 60.25-16.13 60.69-17.33 60.69-18.21L60.69-18.21Q60.69-19.19 59.98-19.48 59.27-19.78 57.74-19.78L57.74-19.78Q57.83-20.48 57.9-21.33 57.96-22.17 57.96-23.19L57.96-23.19Q57.96-24.1 57.88-24.82 57.81-25.54 57.69-26.12L57.69-26.12Q58.86-25.88 60.43-25.7 62.01-25.51 64.08-25.51L64.08-25.51Q67.19-25.51 69.13-25.7 71.07-25.88 71.68-26.12L71.68-26.12Q71.53-25.51 71.46-24.8 71.38-24.1 71.38-23.19L71.38-23.19Q71.38-21.14 71.63-19.78L71.63-19.78Q70.55-19.78 69.87-19.68 69.19-19.58 68.78-19.38 68.38-19.19 68.22-18.88 68.06-18.58 68.06-18.14L68.06-18.14Q68.06-17.48 68.49-16.37 68.92-15.26 69.55-13.85 70.19-12.45 70.91-10.82 71.63-9.18 72.21-7.45L72.21-7.45Q72.82-9.01 73.56-10.55 74.29-12.08 74.92-13.5 75.56-14.92 76-16.13 76.44-17.33 76.44-18.21L76.44-18.21Q76.44-19.19 75.64-19.48 74.85-19.78 73.46-19.78L73.46-19.78Q73.7-21.14 73.7-23.19L73.7-23.19Q73.7-24.95 73.41-26.12L73.41-26.12Q73.73-25.9 74.48-25.78 75.24-25.66 76.23-25.6 77.22-25.54 78.34-25.52 79.47-25.51 80.49-25.51L80.49-25.51Q81.39-25.51 82.49-25.56 83.59-25.61 84.59-25.68 85.59-25.76 86.36-25.87 87.13-25.98 87.4-26.12L87.4-26.12Q87.25-25.51 87.2-24.8 87.16-24.1 87.16-23.19L87.16-23.19Q87.16-21.14 87.4-19.78L87.4-19.78Q86.06-19.78 84.75-18.97 83.44-18.16 82.42-16.7L82.42-16.7Q81.83-15.87 81.49-15.06 81.15-14.26 80.97-13.56 80.78-12.87 80.73-12.3 80.69-11.74 80.69-11.38L80.69-11.38Q80.69-10.74 81.1-10.6L81.1-10.6Q80.44-10.4 79.6-9.56 78.76-8.72 77.99-7.43 77.22-6.15 76.69-4.54 76.17-2.93 76.17-1.22L76.17-1.22Q76.17-0.88 76.21-0.57 76.24-0.27 76.29 0L76.29 0Q76.07-0.12 75.38-0.23 74.68-0.34 73.79-0.43 72.9-0.51 71.97-0.56 71.04-0.61 70.36-0.61L70.36-0.61Q69.63-0.61 68.86-0.55 68.09-0.49 67.38-0.4 66.67-0.32 66.07-0.21 65.48-0.1 65.11 0L65.11 0Q65.13-0.17 65.15-0.4 65.16-0.63 65.16-0.83L65.16-0.83Q65.16-1.49 65.05-2.33 64.94-3.17 64.67-4.14 64.4-5.1 63.94-6.16 63.47-7.23 62.77-8.33L62.77-8.33Q62.18-7.52 61.74-6.56 61.3-5.59 61.01-4.64 60.72-3.69 60.57-2.8 60.42-1.9 60.42-1.22L60.42-1.22Q60.42-0.88 60.46-0.57 60.5-0.27 60.54 0L60.54 0Q60.32-0.12 59.63-0.23 58.93-0.34 58.04-0.43 57.15-0.51 56.22-0.56 55.3-0.61 54.64-0.61L54.64-0.61Q53.9-0.61 53.13-0.55 52.37-0.49 51.65-0.4 50.93-0.32 50.34-0.21 49.75-0.1 49.39 0ZM90.47-28.93L90.47-28.93Q90.62-29.2 90.75-29.74 90.89-30.27 90.97-30.98 91.06-31.69 91.12-32.51 91.18-33.33 91.18-34.18L91.18-34.18Q91.18-34.96 91.12-35.71 91.06-36.45 90.96-37.1 90.86-37.74 90.73-38.26 90.6-38.77 90.45-39.06L90.45-39.06Q90.89-38.92 91.61-38.78 92.33-38.65 93.22-38.55 94.11-38.45 95.1-38.39 96.09-38.33 97.04-38.33L97.04-38.33Q97.92-38.33 98.96-38.37 100-38.4 100.96-38.5 101.92-38.6 102.7-38.73 103.49-38.87 103.88-39.06L103.88-39.06Q103.73-38.75 103.62-38.23 103.51-37.72 103.43-37.07 103.34-36.43 103.3-35.68 103.27-34.94 103.27-34.18L103.27-34.18Q103.27-33.4 103.3-32.64 103.34-31.88 103.43-31.19 103.51-30.49 103.62-29.91 103.73-29.32 103.88-28.93L103.88-28.93Q103.49-29.05 102.74-29.14 102-29.22 101.06-29.28 100.12-29.35 99.09-29.38 98.07-29.42 97.11-29.42L97.11-29.42Q96.16-29.42 95.16-29.38 94.16-29.35 93.24-29.28 92.33-29.22 91.6-29.14 90.86-29.05 90.47-28.93ZM88.52 0L88.52 0Q88.72-0.63 88.79-1.51 88.86-2.39 88.86-3.25L88.86-3.25Q88.86-4.03 88.76-4.81 88.67-5.59 88.52-6.35L88.52-6.35Q89.89-6.35 90.93-6.47 91.96-6.59 92.66-6.9 93.35-7.2 93.71-7.76 94.06-8.33 94.06-9.2L94.06-9.2 94.06-15.99Q94.04-17.04 93.68-17.66 93.33-18.29 92.74-18.62 92.16-18.95 91.39-19.06 90.62-19.17 89.77-19.17L89.77-19.17 88.98-19.17Q89.18-19.65 89.33-20.52 89.47-21.39 89.47-22.34L89.47-22.34Q89.47-23.27 89.34-24.13 89.2-25 88.98-25.51L88.98-25.51Q91.06-25.42 92.85-25.37 94.65-25.32 96.24-25.32L96.24-25.32Q99.19-25.32 101.34-25.55 103.49-25.78 105.02-26.37L105.02-26.37Q104.54-25.42 104.17-24.55 103.8-23.68 103.55-22.72 103.29-21.75 103.16-20.61 103.02-19.46 103.02-17.97L103.02-17.97 103-9.2Q103-8.33 103.38-7.76 103.75-7.2 104.41-6.9 105.07-6.59 105.98-6.47 106.88-6.35 107.93-6.35L107.93-6.35Q107.78-5.83 107.7-5.08 107.61-4.32 107.61-3.47L107.61-3.47Q107.61-2.54 107.67-1.6 107.73-0.66 107.93 0L107.93 0Q107.27-0.12 106.12-0.23 104.98-0.34 103.62-0.43 102.27-0.51 100.79-0.56 99.31-0.61 97.99-0.61L97.99-0.61Q96.82-0.61 95.44-0.57 94.06-0.54 92.73-0.45 91.4-0.37 90.28-0.26 89.16-0.15 88.52 0ZM111.35-0.15L111.35-0.15Q112-0.22 112.81-0.38 113.62-0.54 114.46-0.79 115.3-1.05 116.08-1.43 116.86-1.81 117.49-2.33 118.11-2.86 118.47-3.53 118.84-4.2 118.84-5.05L118.84-5.05Q118.84-5.86 118.45-6.58 118.06-7.3 117.44-7.9 116.81-8.5 116.01-8.96 115.2-9.42 114.36-9.74 113.52-10.06 112.74-10.23 111.96-10.4 111.35-10.4L111.35-10.4Q111.64-10.69 111.86-11.22 112.08-11.74 112.2-12.41 112.32-13.09 112.38-13.88 112.44-14.67 112.44-15.5L112.44-15.5Q112.44-16.38 112.37-17.22 112.3-18.07 112.16-18.8 112.03-19.53 111.82-20.08 111.61-20.63 111.35-20.9L111.35-20.9Q112.35-21.09 113.54-21.64 114.74-22.19 115.83-22.95 116.91-23.71 117.72-24.6 118.52-25.49 118.74-26.37L118.74-26.37Q119.28-26.15 120.17-25.99 121.06-25.83 122.16-25.72 123.26-25.61 124.47-25.56 125.68-25.51 126.87-25.51L126.87-25.51Q127.8-25.51 128.73-25.54 129.66-25.56 130.51-25.63L130.51-25.63Q131.41-26.59 131.68-28.08 131.95-29.57 131.95-31.4L131.95-31.4Q131.95-31.96 131.94-32.41 131.93-32.86 131.89-33.28 131.85-33.69 131.78-34.11 131.71-34.52 131.61-35.03L131.61-35.03Q131.83-34.91 132.39-34.8 132.95-34.69 133.76-34.61 134.56-34.52 135.55-34.47 136.54-34.42 137.64-34.42L137.64-34.42Q138.2-34.42 138.99-34.46 139.79-34.5 140.62-34.58 141.45-34.67 142.18-34.78 142.91-34.89 143.33-35.03L143.33-35.03Q143.18-34.77 143.05-34.28 142.91-33.79 142.81-33.19 142.72-32.59 142.66-31.95 142.6-31.3 142.6-30.76L142.6-30.76Q142.6-29.81 142.64-29.19 142.69-28.56 142.77-28.1 142.84-27.64 142.92-27.27 143.01-26.9 143.08-26.49L143.08-26.49Q142.72-26.56 142.2-26.62 141.69-26.68 141.15-26.75 140.62-26.81 140.12-26.83 139.62-26.86 139.3-26.86L139.3-26.86Q137.52-26.86 136.43-26.21 135.34-25.56 135.2-24.17L135.2-24.17Q135.78-23.51 136.55-22.94 137.32-22.36 138.15-21.94 138.98-21.51 139.84-21.24 140.69-20.97 141.5-20.9L141.5-20.9Q141.23-20.61 141.02-20.04 140.81-19.48 140.68-18.76 140.54-18.04 140.47-17.2 140.4-16.36 140.4-15.5L140.4-15.5Q140.4-14.67 140.47-13.88 140.54-13.09 140.68-12.41 140.81-11.74 141.03-11.22 141.25-10.69 141.55-10.4L141.55-10.4Q141.33-10.45 141.06-10.46 140.79-10.47 140.57-10.47L140.57-10.47Q139.42-10.47 138.25-10 137.08-9.52 136.14-8.81 135.2-8.11 134.59-7.28 133.98-6.45 133.93-5.74L133.93-5.74Q133.61-6.08 132.95-6.32 132.29-6.57 131.44-6.71 130.58-6.86 129.57-6.92 128.56-6.98 127.53-6.98L127.53-6.98Q126.63-6.98 126.07-6.85 125.51-6.71 125.19-6.48 124.87-6.25 124.76-5.96 124.65-5.66 124.65-5.35L124.65-5.35Q124.65-4.88 124.83-4.54 125.02-4.2 125.43-3.98 125.85-3.76 126.56-3.65 127.26-3.54 128.31-3.54L128.31-3.54Q129.48-3.54 130.77-3.61 132.05-3.69 133.18-3.83 134.32-3.98 135.2-4.21 136.08-4.44 136.47-4.76L136.47-4.76Q136.76-3.91 137.61-3.05 138.47-2.2 139.56-1.49 140.64-0.78 141.8-0.34 142.96 0.1 143.86 0.1L143.86 0.1Q143.6 0.34 143.4 0.84 143.21 1.34 143.08 1.99 142.96 2.64 142.9 3.36 142.84 4.08 142.84 4.76L142.84 4.76Q142.84 5.47 142.91 6.16 142.99 6.86 143.12 7.46 143.25 8.06 143.45 8.5 143.64 8.94 143.89 9.13L143.89 9.13Q142.79 9.13 141.61 9.51 140.42 9.89 139.36 10.51 138.3 11.13 137.49 11.9 136.69 12.67 136.37 13.43L136.37 13.43Q136.03 13.28 135.2 13.12 134.37 12.96 133.22 12.82 132.07 12.67 130.72 12.59 129.36 12.5 127.97 12.5L127.97 12.5Q126.51 12.5 125.04 12.56 123.58 12.62 122.32 12.74 121.06 12.87 120.13 13.04 119.21 13.21 118.84 13.43L118.84 13.43Q118.69 12.74 117.84 11.99 116.98 11.23 115.84 10.6 114.69 9.96 113.46 9.55 112.22 9.13 111.32 9.13L111.32 9.13Q111.59 8.94 111.8 8.45 112 7.96 112.15 7.3 112.3 6.64 112.37 5.91 112.44 5.18 112.44 4.52L112.44 4.52Q112.44 3.88 112.37 3.15 112.3 2.42 112.16 1.76 112.03 1.1 111.82 0.59 111.61 0.07 111.35-0.15ZM121.87-16.16L121.87-16.16Q121.87-14.77 122.21-13.84 122.55-12.92 123.15-12.37 123.75-11.82 124.57-11.58 125.38-11.35 126.31-11.35L126.31-11.35Q127.24-11.35 128.06-11.58 128.87-11.82 129.47-12.37 130.07-12.92 130.41-13.84 130.75-14.77 130.75-16.16L130.75-16.16Q130.75-17.55 130.41-18.48 130.07-19.41 129.47-19.96 128.87-20.51 128.06-20.74 127.24-20.97 126.31-20.97L126.31-20.97Q125.38-20.97 124.57-20.74 123.75-20.51 123.15-19.96 122.55-19.41 122.21-18.48 121.87-17.55 121.87-16.16ZM122.31 4.44L122.31 4.44Q122.31 6.27 123.59 7.28 124.87 8.28 127.39 8.28L127.39 8.28Q129.9 8.28 131.18 7.28 132.46 6.27 132.46 4.44L132.46 4.44Q132.46 2.61 131.18 1.61 129.9 0.61 127.39 0.61L127.39 0.61Q124.87 0.61 123.59 1.61 122.31 2.61 122.31 4.44ZM148.77-0.15L148.77-0.15Q149.43-0.22 150.23-0.38 151.04-0.54 151.88-0.79 152.72-1.05 153.51-1.43 154.29-1.81 154.91-2.33 155.53-2.86 155.9-3.53 156.26-4.2 156.26-5.05L156.26-5.05Q156.26-5.86 155.87-6.58 155.48-7.3 154.86-7.9 154.24-8.5 153.43-8.96 152.63-9.42 151.78-9.74 150.94-10.06 150.16-10.23 149.38-10.4 148.77-10.4L148.77-10.4Q149.06-10.69 149.28-11.22 149.5-11.74 149.62-12.41 149.75-13.09 149.81-13.88 149.87-14.67 149.87-15.5L149.87-15.5Q149.87-16.38 149.79-17.22 149.72-18.07 149.59-18.8 149.45-19.53 149.25-20.08 149.04-20.63 148.77-20.9L148.77-20.9Q149.77-21.09 150.97-21.64 152.16-22.19 153.25-22.95 154.34-23.71 155.14-24.6 155.95-25.49 156.17-26.37L156.17-26.37Q156.7-26.15 157.59-25.99 158.49-25.83 159.58-25.72 160.68-25.61 161.89-25.56 163.1-25.51 164.3-25.51L164.3-25.51Q165.22-25.51 166.15-25.54 167.08-25.56 167.93-25.63L167.93-25.63Q168.84-26.59 169.11-28.08 169.37-29.57 169.37-31.4L169.37-31.4Q169.37-31.96 169.36-32.41 169.35-32.86 169.31-33.28 169.28-33.69 169.2-34.11 169.13-34.52 169.03-35.03L169.03-35.03Q169.25-34.91 169.81-34.8 170.38-34.69 171.18-34.61 171.99-34.52 172.98-34.47 173.96-34.42 175.06-34.42L175.06-34.42Q175.62-34.42 176.42-34.46 177.21-34.5 178.04-34.58 178.87-34.67 179.6-34.78 180.34-34.89 180.75-35.03L180.75-35.03Q180.61-34.77 180.47-34.28 180.34-33.79 180.24-33.19 180.14-32.59 180.08-31.95 180.02-31.3 180.02-30.76L180.02-30.76Q180.02-29.81 180.07-29.19 180.12-28.56 180.19-28.1 180.26-27.64 180.35-27.27 180.43-26.9 180.51-26.49L180.51-26.49Q180.14-26.56 179.63-26.62 179.12-26.68 178.58-26.75 178.04-26.81 177.54-26.83 177.04-26.86 176.72-26.86L176.72-26.86Q174.94-26.86 173.85-26.21 172.77-25.56 172.62-24.17L172.62-24.17Q173.21-23.51 173.98-22.94 174.75-22.36 175.58-21.94 176.41-21.51 177.26-21.24 178.12-20.97 178.92-20.9L178.92-20.9Q178.65-20.61 178.44-20.04 178.24-19.48 178.1-18.76 177.97-18.04 177.9-17.2 177.82-16.36 177.82-15.5L177.82-15.5Q177.82-14.67 177.9-13.88 177.97-13.09 178.1-12.41 178.24-11.74 178.46-11.22 178.68-10.69 178.97-10.4L178.97-10.4Q178.75-10.45 178.48-10.46 178.21-10.47 177.99-10.47L177.99-10.47Q176.85-10.47 175.67-10 174.5-9.52 173.56-8.81 172.62-8.11 172.01-7.28 171.4-6.45 171.35-5.74L171.35-5.74Q171.03-6.08 170.38-6.32 169.72-6.57 168.86-6.71 168.01-6.86 166.99-6.92 165.98-6.98 164.96-6.98L164.96-6.98Q164.05-6.98 163.49-6.85 162.93-6.71 162.61-6.48 162.29-6.25 162.18-5.96 162.07-5.66 162.07-5.35L162.07-5.35Q162.07-4.88 162.26-4.54 162.44-4.2 162.86-3.98 163.27-3.76 163.98-3.65 164.69-3.54 165.74-3.54L165.74-3.54Q166.91-3.54 168.19-3.61 169.47-3.69 170.61-3.83 171.74-3.98 172.62-4.21 173.5-4.44 173.89-4.76L173.89-4.76Q174.18-3.91 175.04-3.05 175.89-2.2 176.98-1.49 178.07-0.78 179.23-0.34 180.39 0.1 181.29 0.1L181.29 0.1Q181.02 0.34 180.82 0.84 180.63 1.34 180.51 1.99 180.39 2.64 180.32 3.36 180.26 4.08 180.26 4.76L180.26 4.76Q180.26 5.47 180.34 6.16 180.41 6.86 180.54 7.46 180.68 8.06 180.87 8.5 181.07 8.94 181.31 9.13L181.31 9.13Q180.21 9.13 179.03 9.51 177.85 9.89 176.78 10.51 175.72 11.13 174.92 11.9 174.11 12.67 173.79 13.43L173.79 13.43Q173.45 13.28 172.62 13.12 171.79 12.96 170.64 12.82 169.5 12.67 168.14 12.59 166.79 12.5 165.4 12.5L165.4 12.5Q163.93 12.5 162.47 12.56 161 12.62 159.74 12.74 158.49 12.87 157.56 13.04 156.63 13.21 156.26 13.43L156.26 13.43Q156.12 12.74 155.26 11.99 154.41 11.23 153.26 10.6 152.11 9.96 150.88 9.55 149.65 9.13 148.74 9.13L148.74 9.13Q149.01 8.94 149.22 8.45 149.43 7.96 149.57 7.3 149.72 6.64 149.79 5.91 149.87 5.18 149.87 4.52L149.87 4.52Q149.87 3.88 149.79 3.15 149.72 2.42 149.59 1.76 149.45 1.1 149.25 0.59 149.04 0.07 148.77-0.15ZM159.29-16.16L159.29-16.16Q159.29-14.77 159.63-13.84 159.98-12.92 160.57-12.37 161.17-11.82 161.99-11.58 162.81-11.35 163.74-11.35L163.74-11.35Q164.66-11.35 165.48-11.58 166.3-11.82 166.9-12.37 167.49-12.92 167.84-13.84 168.18-14.77 168.18-16.16L168.18-16.16Q168.18-17.55 167.84-18.48 167.49-19.41 166.9-19.96 166.3-20.51 165.48-20.74 164.66-20.97 163.74-20.97L163.74-20.97Q162.81-20.97 161.99-20.74 161.17-20.51 160.57-19.96 159.98-19.41 159.63-18.48 159.29-17.55 159.29-16.16ZM159.73 4.44L159.73 4.44Q159.73 6.27 161.01 7.28 162.29 8.28 164.81 8.28L164.81 8.28Q167.32 8.28 168.61 7.28 169.89 6.27 169.89 4.44L169.89 4.44Q169.89 2.61 168.61 1.61 167.32 0.61 164.81 0.61L164.81 0.61Q162.29 0.61 161.01 1.61 159.73 2.61 159.73 4.44ZM183.24 2.93L183.24 2.93Q183.53 3.05 184.07 3.13 184.61 3.2 185.29 3.25 185.97 3.3 186.74 3.31 187.51 3.32 188.27 3.32L188.27 3.32Q189.03 3.32 189.75 3.31 190.47 3.3 191.08 3.25 191.69 3.2 192.15 3.13 192.61 3.05 192.83 2.93L192.83 2.93Q192.83 4.1 193.42 4.8 194.01 5.49 195.03 5.49L195.03 5.49Q195.96 5.49 196.55 4.71 197.13 3.93 197.13 2.78L197.13 2.78Q197.13 1.44 196.44 0.68 195.74-0.07 194.57-0.07L194.57-0.07Q194.23-0.07 193.86 0L193.86 0Q193.88-0.17 193.9-0.4 193.91-0.63 193.91-0.83L193.91-0.83Q193.91-1.88 193.62-3.34 193.32-4.81 192.49-6.52L192.49-6.52Q191.64-8.28 190.71-9.31 189.78-10.35 188.88-10.62L188.88-10.62Q189.29-10.77 189.29-11.38L189.29-11.38Q189.29-11.69 189.26-12.24 189.22-12.79 189.03-13.51 188.83-14.23 188.44-15.09 188.05-15.94 187.32-16.87L187.32-16.87Q186.9-17.41 186.36-17.92 185.83-18.43 185.2-18.85 184.58-19.26 183.92-19.52 183.26-19.78 182.6-19.78L182.6-19.78Q182.73-20.48 182.81-21.33 182.9-22.17 182.9-23.19L182.9-23.19Q182.9-24.95 182.6-26.12L182.6-26.12Q182.97-25.98 183.47-25.87 183.97-25.76 184.73-25.67 185.49-25.59 186.56-25.55 187.63-25.51 189.15-25.51L189.15-25.51Q190.71-25.51 192.43-25.52 194.15-25.54 195.72-25.6 197.28-25.66 198.51-25.78 199.74-25.9 200.33-26.12L200.33-26.12Q200.18-25.51 200.11-24.8 200.04-24.1 200.04-23.19L200.04-23.19Q200.04-21.14 200.28-19.78L200.28-19.78Q198.45-19.78 197.66-19.38 196.86-18.99 196.86-18.14L196.86-18.14Q196.86-17.48 197.3-16.38 197.74-15.28 198.4-13.88 199.06-12.48 199.79-10.84 200.52-9.2 201.11-7.47L201.11-7.47Q201.75-9.01 202.5-10.56 203.26-12.11 203.91-13.51 204.55-14.92 204.99-16.13 205.43-17.33 205.43-18.21L205.43-18.21Q205.43-19.19 204.72-19.48 204.02-19.78 202.4-19.78L202.4-19.78Q202.65-21.14 202.65-23.19L202.65-23.19Q202.65-24.95 202.36-26.12L202.36-26.12Q202.67-25.9 203.44-25.78 204.21-25.66 205.22-25.6 206.24-25.54 207.38-25.52 208.53-25.51 209.58-25.51L209.58-25.51Q210.51-25.51 211.63-25.55 212.76-25.59 213.78-25.67 214.81-25.76 215.6-25.87 216.39-25.98 216.66-26.12L216.66-26.12Q216.52-25.51 216.47-24.8 216.42-24.1 216.42-23.19L216.42-23.19Q216.42-21.14 216.66-19.78L216.66-19.78Q215.27-19.78 213.93-18.97 212.59-18.16 211.56-16.7L211.56-16.7Q210.97-15.84 210.62-15.05 210.27-14.26 210.08-13.56 209.9-12.87 209.85-12.3 209.8-11.74 209.8-11.38L209.8-11.38Q209.8-10.77 210.22-10.62L210.22-10.62Q209.17-10.33 208.12-9.11 207.07-7.89 205.99-5.44L205.99-5.44Q205.6-4.54 205.11-3.27 204.63-2 204.14-0.57 203.65 0.85 203.2 2.33 202.75 3.81 202.39 5.09 202.04 6.37 201.82 7.35 201.6 8.33 201.6 8.79L201.6 8.79Q200.92 8.86 199.87 9.16 198.82 9.45 197.67 10.01 196.52 10.57 195.4 11.41 194.27 12.26 193.44 13.43L193.44 13.43Q192.57 13.09 191.32 12.89 190.08 12.7 188.59 12.7L188.59 12.7Q186.97 12.7 185.62 12.88 184.26 13.06 183.24 13.43L183.24 13.43Q183.36 13.01 183.45 12.43 183.53 11.84 183.58 11.17 183.63 10.5 183.65 9.78 183.68 9.06 183.68 8.4L183.68 8.4Q183.68 7.59 183.64 6.8 183.61 6.01 183.56 5.29 183.51 4.57 183.42 3.97 183.34 3.37 183.24 2.93Z" opacity="1" transform="matrix(1,0,0,1,0,0)" fill="#fe5e02" class="wordmark-text-0" data-fill-palette-color="primary" id="text-0"></path></svg></g></svg></g></svg></g></svg></g><g><svg viewBox="0 0 244.43135999999998 246.6251061558618" height="246.6251061558618" width="244.43135999999998"><g><svg xmlns="http://www.w3.org/2000/svg" xmlns:xlink="http://www.w3.org/1999/xlink" version="1.1" x="0" y="0" viewBox="6.338 7 76.32400000000001 77.009" enable-background="new 0 0 89 89" xml:space="preserve" height="246.6251061558618" width="244.43135999999998" class="icon-icon-0" data-fill-palette-color="accent" id="icon-0"><rect x="6.338" y="7" width="76.324" height="19.885" fill="#fe5e02" data-fill-palette-color="accent"></rect><rect x="6.338" y="30.5" width="26.111" height="26.109" fill="#fe5e02" data-fill-palette-color="accent"></rect><rect x="37.872" y="31.1" width="44.79" height="4.017" fill="#fe5e02" data-fill-palette-color="accent"></rect><rect x="37.872" y="37.932" width="44.79" height="4.017" fill="#fe5e02" data-fill-palette-color="accent"></rect><rect x="37.872" y="45.041" width="44.79" height="4.017" fill="#fe5e02" data-fill-palette-color="accent"></rect><rect x="37.872" y="52.124" width="44.79" height="4.018" fill="#fe5e02" data-fill-palette-color="accent"></rect><rect x="6.338" y="58.966" width="76.324" height="4.018" fill="#fe5e02" data-fill-palette-color="accent"></rect><rect x="6.338" y="65.797" width="76.324" height="4.018" fill="#fe5e02" data-fill-palette-color="accent"></rect><rect x="6.338" y="72.907" width="76.324" height="4.018" fill="#fe5e02" data-fill-palette-color="accent"></rect><rect x="6.338" y="79.991" width="76.324" height="4.018" fill="#fe5e02" data-fill-palette-color="accent"></rect></svg></g></svg></g></svg></g><defs></defs></svg><rect width="395.52" height="147.18220144861093" fill="none" stroke="none" visibility="hidden"></rect></g></svg></g></svg>